<svg width="30" height="20" viewBox="0 0 30 20" fill="none" xmlns="http://www.w3.org/2000/svg">
    <path d="M28.797 3.41a3.342 3.342 0 0 0-.919-1.524 3.659 3.659 0 0 0-1.605-.89C24.02.402 14.993.402 14.993.402A91.928 91.928 0 0 0 3.727.966a3.791 3.791 0 0 0-1.605.912 3.475 3.475 0 0 0-.933 1.53A34.9 34.9 0 0 0 .603 10a34.837 34.837 0 0 0 .586 6.591c.164.575.484 1.1.93 1.523.445.423.999.73 1.608.891 2.283.593 11.266.593 11.266.593a92.141 92.141 0 0 0 11.28-.564 3.659 3.659 0 0 0 1.605-.89c.444-.424.76-.95.918-1.524.414-2.173.615-4.38.6-6.592.032-2.222-.169-4.44-.599-6.62v.002zM12.123 14.108V5.893l7.51 4.108-7.51 4.107z" fill="#fff"/>
</svg>
