<svg width="153" height="46" viewBox="0 0 153 46" fill="none" xmlns="http://www.w3.org/2000/svg">
    <path fill-rule="evenodd" clip-rule="evenodd" d="M0 14.815 2.214 3.564H25.49l-2.065 11.251H17.82l-3.835 19.509c-.05.19-.067.396-.067.616 0 .485.098 1.408.82 1.408 1.098 0 2.164-.747 3.081-1.188l-2.54 10.063c-1.87.426-3.754.777-5.705.777-4.687 0-9.229-1.305-9.229-6.146 0-.103 0-.206.034-.309l4.868-24.73H0z" fill="#fff"/>
    <path fill-rule="evenodd" clip-rule="evenodd" d="M52.683 24.13 33.8 35.204c1.18 1.056 2.46 1.994 4.213 1.994 4.786 0 8.343-4.033 11.294-6.893L47.06 41.702c-4.163 2.67-9.409 4.165-14.54 4.165-8.212 0-13.835-6.086-13.835-13.158 0-9.666 10.704-19.552 21.604-19.552 3.59 0 7 1.555 9.295 3.99 1.967 2.098 2.934 4.298 3.098 6.983zm-3.295 21.092 6.229-31.683h12.54c-.05.587-.099 1.174-.099 1.745 0 .543.148 1.056.312 1.57 2.033-2.024 4.884-3.711 8.015-3.711 4.508 0 8.573 2.934 8.573 7.114 0 .513-.05 1.026-.147 1.525l-4.623 23.44H67.355l3.902-19.758c.032-.191.049-.367.049-.557 0-1.145-1.066-1.981-2.328-1.981-1.376 0-2.278.997-2.507 2.141l-4.147 20.155H49.388zm32.293 0 6.246-31.683h12.554v.733c0 1.056.215 1.922.869 2.802.738-.836 1.557-1.628 2.591-2.185 2.262-1.189 5.13-1.745 7.735-1.745 1.05 0 1.952.264 2.903.66.786 2.038 2.065 3.607 3.654 5.207l-5.162 26.212h-13.033l3.853-19.524c.05-.264.065-.529.065-.792 0-1.13-.656-2.142-2.065-2.142-1.442 0-2.376 1.159-2.607 2.333l-3.983 20.125H81.68zm32.947 0 4.982-25.317c2.23 1.687 4.245 2.493 7.197 2.493 1.721 0 3.377-.352 5.031-.748L127.2 45.222h-12.572z" fill="#fff"/>
    <path fill-rule="evenodd" clip-rule="evenodd" d="M120.544 19.01c1.264-.323 2.525-.631 3.853-.631 2.344 0 4.476 1.085 6.491 2.053-1.279.367-2.607.748-3.949.748-2.411.001-4.476-.923-6.395-2.17zm-3.245-3.066c-1.081-1.672-2.081-3.403-2.081-5.383 0-2.89 1.721-5.12 3.819-7.158 3.754 2.523 7.394 4.02 12.179 4.02 2.231 0 4.377-.543 6.492-1.145.77 1.364 1.524 2.802 1.524 4.357 0 2.948-1.688 5.368-3.868 7.466-3.229-1.921-6.671-3.579-10.671-3.579-2.557 0-5 .703-7.394 1.422zm5.622-14.888C124.431.498 125.938 0 127.577 0c2.901 0 5.262.777 7.41 2.523-1.312.587-2.64 1.085-4.132 1.085-2.966 0-5.589-.968-7.934-2.552zm5.902 42.993 2.146-10.826c.853.822 3.066 3.169 4.557 3.169 1.131 0 1.328-1.628 1.328-2.347 0-1.1-.279-2.113-1.033-3.022-1.656-1.98-3.787-3.74-3.787-6.394 0-1.086.262-2.157.542-3.198 3.785-1.482 5.868-3.902 7.031-7.393H153l-1.885 9.593c-.918-.866-1.999-1.878-3.426-1.878-1.263 0-2.196 1.247-2.196 2.274 0 1.584.885 3.36 2.031 4.547l2.082 2.143c1 1.026 1.476 2.39 1.476 3.739 0 2.538-1.623 4.958-3.474 6.778-3.149 3.08-6.329 4.062-11.017 4.062-2.687 0-5.211-.528-7.768-1.247zM30.98 30.1c3.295-.852 8.311-4.93 9.033-7.937-.558-.117-1.131-.235-1.705-.235-3.327 0-7.54 3.447-7.54 6.469 0 .572.098 1.145.213 1.703z" fill="#fff"/>
</svg>
