<?xml version="1.0" encoding="utf-8"?><svg viewBox="0 0 36 36" xmlns="http://www.w3.org/2000/svg" xmlns:xlink="http://www.w3.org/1999/xlink"><style>:root>svg{display:none}:root>svg:target{display:block}</style><svg fill="none" viewBox="0 0 36 36" id="vk_b" xmlns="http://www.w3.org/2000/svg"><path d="M29.962 12.033c.204.536-.422 1.787-1.88 3.752-.204.268-.466.626-.787 1.073-.67.834-1.05 1.385-1.137 1.653-.146.357-.087.7.175 1.027.146.179.481.536 1.006 1.072h.044v.045c1.195 1.102 1.996 2.04 2.405 2.815l.087.178.087.336v.424l-.306.335-.743.157-3.192.089c-.204.03-.445 0-.722-.09a3.05 3.05 0 01-.634-.268l-.262-.178c-.262-.179-.554-.447-.875-.805-.32-.357-.604-.684-.852-.982a4.426 4.426 0 00-.766-.738c-.262-.193-.495-.26-.7-.2a.21.21 0 00-.108.044c-.044.03-.117.097-.219.201-.102.104-.19.231-.262.38a2.843 2.843 0 00-.197.648 5.042 5.042 0 00-.088 1.005c0 .12-.014.23-.043.335a1.49 1.49 0 01-.088.246l-.044.044c-.174.18-.408.268-.7.268h-1.398c-.613.06-1.232 0-1.859-.178a6.684 6.684 0 01-1.64-.693 16.025 16.025 0 01-1.268-.849 7.709 7.709 0 01-.874-.737l-.306-.313a1.936 1.936 0 01-.35-.357 53.377 53.377 0 01-.896-1.162 28.964 28.964 0 01-1.334-1.92c-.437-.686-.948-1.587-1.53-2.704a43.977 43.977 0 01-1.619-3.462A1.048 1.048 0 016 12.167a.51.51 0 01.044-.224l.043-.044c.117-.18.35-.269.7-.269h3.455c.087 0 .174.023.262.067l.219.112.043.045a.71.71 0 01.306.402c.175.417.372.856.59 1.318.22.462.387.812.503 1.05l.175.357c.263.507.503.946.722 1.318.219.373.415.663.59.871.175.209.35.373.525.492.175.119.32.178.437.178.117 0 .233-.014.35-.044l.044-.067.153-.29.175-.581.109-1.028v-1.608a8.099 8.099 0 00-.131-.916c-.058-.283-.117-.484-.175-.603l-.044-.134c-.204-.298-.568-.492-1.093-.581-.087 0-.058-.104.087-.313a1.85 1.85 0 01.481-.357c.438-.239 1.429-.343 2.974-.313.67 0 1.239.06 1.705.179.146.03.277.082.394.156a.685.685 0 01.262.313c.058.134.102.268.131.402.03.134.044.328.044.58v.693a7.591 7.591 0 00-.044.894v1.072c0 .09-.007.268-.021.536-.015.268-.022.477-.022.626 0 .149.014.32.043.513.03.194.08.358.153.492a.675.675 0 00.481.357c.073.015.183-.03.328-.134.146-.104.306-.253.481-.447.175-.193.394-.484.656-.87.263-.388.54-.835.831-1.341a24.22 24.22 0 001.356-2.904c.029-.06.065-.127.109-.201a.39.39 0 01.153-.156h.044l.043-.045.175-.045h.263l3.585-.045c.321-.03.59-.014.81.045.218.06.342.134.371.223l.087.135z" fill="#fff"/></svg><svg fill="none" viewBox="0 0 30 20" id="you_b" xmlns="http://www.w3.org/2000/svg"><path d="M28.797 3.41a3.342 3.342 0 00-.919-1.524 3.659 3.659 0 00-1.605-.89C24.02.402 14.993.402 14.993.402A91.928 91.928 0 003.727.966a3.791 3.791 0 00-1.605.912 3.475 3.475 0 00-.933 1.53A34.9 34.9 0 00.603 10a34.837 34.837 0 00.586 6.591c.164.575.484 1.1.93 1.523.445.423.999.73 1.608.891 2.283.593 11.266.593 11.266.593a92.141 92.141 0 0011.28-.564 3.659 3.659 0 001.605-.89c.444-.424.76-.95.918-1.524.414-2.173.615-4.38.6-6.592a31.834 31.834 0 00-.599-6.62v.002zM12.123 14.108V5.893l7.51 4.108-7.51 4.107z" fill="#fff"/></svg></svg>